<!DOCTYPE svg PUBLIC "-//W3C//DTD SVG 1.1//EN" "http://www.w3.org/Graphics/SVG/1.1/DTD/svg11.dtd">
<!-- Uploaded to: SVG Repo, www.svgrepo.com, Transformed by: SVG Repo Mixer Tools -->
<svg width="800px" height="800px" viewBox="0 0 16 16" fill="none" xmlns="http://www.w3.org/2000/svg">
<g id="SVGRepo_bgCarrier" stroke-width="0"/>
<g id="SVGRepo_tracerCarrier" stroke-linecap="round" stroke-linejoin="round"/>
<g id="SVGRepo_iconCarrier"> <path fill-rule="evenodd" clip-rule="evenodd" d="M8 16C12.4183 16 16 12.4183 16 8C16 3.58172 12.4183 0 8 0C3.58172 0 0 3.58172 0 8C0 12.4183 3.58172 16 8 16ZM8 3C6.34315 3 5 4.34315 5 6H7C7 5.44772 7.44772 5 8 5C8.55228 5 9 5.44772 9 6V6.09317C9 6.39533 8.87493 6.68402 8.65449 6.89068L5 10.3168V13H11V11H7.19545L10.0224 8.34976C10.6461 7.765 11 6.94815 11 6.09317V6C11 4.34315 9.65685 3 8 3Z" fill="#9BAD21"/> </g>
</svg>