<?xml version="1.0" encoding="utf-8"?>
<!-- Generator: Adobe Illustrator 25.2.0, SVG Export Plug-In . SVG Version: 6.00 Build 0)  -->
<svg version="1.1" id="Ebene_1" xmlns="http://www.w3.org/2000/svg" xmlns:xlink="http://www.w3.org/1999/xlink" x="0px" y="0px"
	 viewBox="0 0 329.19 139.13" style="enable-background:new 0 0 329.19 139.13;" xml:space="preserve">
<style type="text/css">
	.st0{fill:#FFFFFF;}
	.st1{fill:#005A9A;}
	.st2{fill:#FFD500;}
</style>
<g>
	<g>
		<path class="st1" d="M39.73,85.89c-4.63,4.63-10.15,6.95-16.55,6.95s-11.86-2.26-16.39-6.79S0,76.07,0,69.67S2.26,57.8,6.79,53.28
			s9.99-6.79,16.39-6.79s11.86,2.26,16.39,6.79s6.79,9.99,6.79,16.39v19.86c0,0.91-0.32,1.69-0.97,2.34
			c-0.65,0.65-1.43,0.97-2.34,0.97c-0.91,0-1.69-0.32-2.34-0.97c-0.65-0.65-0.97-1.43-0.97-2.34V85.89z M23.17,53.11
			c-4.58,0-8.48,1.61-11.71,4.84c-3.23,3.23-4.84,7.13-4.84,11.71s1.61,8.48,4.84,11.71c3.23,3.23,7.13,4.84,11.71,4.84
			s8.48-1.61,11.71-4.84c3.23-3.23,4.84-7.13,4.84-11.71s-1.61-8.48-4.84-11.71C31.66,54.73,27.75,53.11,23.17,53.11z"/>
		<path class="st1" d="M92.36,81.5c0.91,0,1.69,0.32,2.34,0.97s0.97,1.43,0.97,2.34c0,0.91-0.34,1.72-1.03,2.44
			c-4.28,3.72-9.31,5.59-15.11,5.59c-6.4,0-11.86-2.26-16.39-6.79s-6.79-9.99-6.79-16.39s2.26-11.86,6.79-16.39
			s9.99-6.79,16.39-6.79c5.79,0,10.83,1.86,15.11,5.59c0.77,0.69,1.16,1.54,1.16,2.57c0,0.91-0.32,1.69-0.97,2.34
			c-0.65,0.65-1.43,0.97-2.34,0.97c-0.8,0-1.5-0.25-2.11-0.74c-3.09-2.73-6.7-4.1-10.84-4.1c-4.58,0-8.48,1.61-11.71,4.84
			c-3.23,3.23-4.84,7.13-4.84,11.71s1.61,8.48,4.84,11.71c3.23,3.23,7.13,4.84,11.71,4.84c4.14,0,7.74-1.35,10.8-4.06
			C90.92,81.72,91.59,81.5,92.36,81.5z"/>
	</g>
	<path class="st2" d="M179.56,81.5c0.91,0,1.69,0.32,2.34,0.97s0.97,1.43,0.97,2.34c0,0.91-0.34,1.72-1.03,2.44
		c-4.28,3.72-9.31,5.59-15.11,5.59c-6.4,0-11.86-2.26-16.39-6.79s-6.79-9.99-6.79-16.39s2.26-11.86,6.79-16.39s9.99-6.79,16.39-6.79
		c5.79,0,10.83,1.86,15.11,5.59c0.77,0.69,1.16,1.54,1.16,2.57c0,0.91-0.32,1.69-0.97,2.34c-0.65,0.65-1.43,0.97-2.34,0.97
		c-0.8,0-1.5-0.25-2.11-0.74c-3.09-2.73-6.7-4.1-10.84-4.1c-4.58,0-8.48,1.61-11.71,4.84c-3.23,3.23-4.84,7.13-4.84,11.71
		s1.61,8.48,4.84,11.71c3.23,3.23,7.13,4.84,11.71,4.84c4.14,0,7.74-1.35,10.8-4.06C178.11,81.72,178.79,81.5,179.56,81.5z"/>
	<path class="st2" d="M229.21,81.59c0.91,0,1.69,0.32,2.34,0.97c0.65,0.65,0.97,1.43,0.97,2.34s-0.32,1.7-0.95,2.36
		c-4.28,3.72-9.31,5.59-15.11,5.59c-6.4,0-11.86-2.26-16.39-6.79s-6.79-9.99-6.79-16.39s2.26-11.86,6.79-16.39s9.99-6.79,16.39-6.79
		c6.4,0,11.86,2.26,16.39,6.79s6.79,9.99,6.79,16.39c0,0.91-0.32,1.69-0.97,2.34c-0.65,0.65-1.43,0.97-2.34,0.97H200.2
		c0.61,3.17,2.12,5.97,4.55,8.4c3.23,3.23,7.13,4.84,11.71,4.84c4.14,0,7.7-1.31,10.68-3.93C227.75,81.82,228.44,81.59,229.21,81.59
		z M232.73,66.36c-0.61-3.17-2.12-5.97-4.55-8.4c-3.23-3.23-7.13-4.84-11.71-4.84s-8.48,1.61-11.71,4.84
		c-2.43,2.43-3.95,5.23-4.55,8.4H232.73z"/>
	<path class="st2" d="M249.65,49.8c0-0.91,0.32-1.69,0.97-2.34c0.65-0.65,1.43-0.97,2.34-0.97c0.91,0,1.69,0.32,2.34,0.97
		c0.65,0.65,0.97,1.43,0.97,2.34v2.69c4.14-4,9.1-6,14.9-6c5.93,0,11,2.1,15.21,6.31c4.21,4.21,6.31,9.28,6.31,15.21v21.52
		c0,0.91-0.32,1.69-0.97,2.34c-0.65,0.65-1.43,0.97-2.34,0.97c-0.91,0-1.69-0.32-2.34-0.97c-0.65-0.65-0.97-1.43-0.97-2.34V68.01
		c0-4.11-1.46-7.62-4.37-10.53c-2.91-2.91-6.42-4.37-10.53-4.37c-4.11,0-7.62,1.46-10.53,4.37c-2.91,2.91-4.37,6.42-4.37,10.53
		v21.52c0,0.91-0.32,1.69-0.97,2.34c-0.65,0.65-1.43,0.97-2.34,0.97c-0.91,0-1.69-0.32-2.34-0.97c-0.65-0.65-0.97-1.43-0.97-2.34
		V49.8z"/>
	<path class="st2" d="M325.88,86.22c0.91,0,1.69,0.32,2.34,0.97c0.65,0.65,0.97,1.43,0.97,2.34s-0.32,1.69-0.97,2.34
		c-0.65,0.65-1.43,0.97-2.34,0.97c-11.04,0-16.55-5.52-16.55-16.55V53.11h-3.31c-0.91,0-1.69-0.32-2.34-0.97
		c-0.65-0.65-0.97-1.43-0.97-2.34c0-0.91,0.32-1.69,0.97-2.34c0.65-0.65,1.43-0.97,2.34-0.97h3.31V29.94c0-0.91,0.32-1.69,0.97-2.34
		s1.43-0.97,2.34-0.97c0.91,0,1.69,0.32,2.34,0.97s0.97,1.43,0.97,2.34v16.55h6.66c0.91,0,1.69,0.32,2.34,0.97
		c0.65,0.65,0.97,1.43,0.97,2.34c0,0.91-0.32,1.69-0.97,2.34c-0.65,0.65-1.43,0.97-2.34,0.97h-6.66v23.17
		C315.95,82.91,319.26,86.22,325.88,86.22z"/>
	<g>
		<path class="st1" d="M99.12,104.18c-0.46,0-0.92-0.09-1.36-0.29c-1.67-0.75-2.41-2.7-1.66-4.35l44.45-97.6
			c0.76-1.66,2.72-2.39,4.39-1.64c1.67,0.75,2.41,2.7,1.66,4.35l-44.45,97.6C101.59,103.46,100.38,104.18,99.12,104.18z"/>
	</g>
	<g>
		<path class="st2" d="M99.14,139.13c-0.45,0-0.91-0.09-1.35-0.29c-1.66-0.75-2.39-2.69-1.65-4.34l44.45-98.17
			c0.75-1.65,2.7-2.39,4.36-1.64c1.66,0.75,2.39,2.69,1.65,4.34l-44.45,98.17C101.59,138.41,100.4,139.13,99.14,139.13z"/>
	</g>
</g>
</svg>
