<?xml version="1.0" standalone="no"?> <!DOCTYPE svg PUBLIC "-//W3C//DTD SVG 20010904//EN" "http://www.w3.org/TR/2001/REC-SVG-20010904/DTD/svg10.dtd"> <svg version="1.0" xmlns="http://www.w3.org/2000/svg" width="1800.000000pt" height="945.000000pt" viewBox="0 0 1800.000000 945.000000" preserveAspectRatio="xMidYMid meet"> <g transform="translate(0.000000,945.000000) scale(0.100000,-0.100000)" fill="#003366" stroke="none"> <path d="M13865 8199 c-33 -4 -100 -12 -150 -18 -49 -5 -110 -14 -135 -20 -25 -5 -72 -15 -105 -21 -125 -24 -152 -30 -205 -45 -30 -9 -63 -20 -72 -26 -10 -5 -25 -9 -35 -9 -21 0 -145 -40 -158 -52 -5 -4 -18 -8 -30 -8 -12 0 -30 -7 -41 -15 -10 -8 -25 -15 -32 -15 -8 0 -30 -7 -50 -16 -324 -139 -574 -282 -815 -466 -234 -179 -506 -452 -667 -669 -98 -132 -155 -211 -159 -223 -2 -6 -19 -33 -37 -61 -49 -75 -87 -145 -165 -305 -74 -149 -85 -173 -114 -250 -10 -25 -23 -58 -30 -75 -7 -16 -21 -55 -30 -85 -9 -30 -23 -69 -31 -87 -8 -17 -14 -41 -14 -53 0 -12 -5 -30 -10 -41 -10 -18 -14 -34 -44 -174 -9 -38 -20 -86 -26 -105 -5 -19 -10 -51 -10 -72 0 -20 -4 -48 -10 -62 -9 -26 -21 -137 -41 -398 -18 -222 13 -611 66 -848 9 -36 15 -72 15 -81 0 -9 7 -41 16 -70 8 -30 22 -79 31 -109 30 -106 45 -155 59 -188 8 -18 14 -41 14 -50 0 -10 7 -27 15 -38 8 -10 15 -28 15 -40 0 -11 7 -29 15 -40 8 -10 15 -25 15 -31 1 -37 179 -389 259 -513 47 -72 58 -91 72 -117 7 -13 16 -23 21 -23 4 0 8 -5 8 -11 0 -6 48 -74 108 -152 109 -144 447 -497 543 -568 25 -19 91 -69 147 -111 56 -43 104 -78 108 -78 3 0 23 -13 44 -30 21 -16 40 -30 43 -30 3 0 31 -18 63 -39 33 -21 93 -57 134 -80 119 -65 362 -181 379 -181 5 0 22 -6 38 -14 49 -25 76 -35 183 -70 94 -30 144 -45 260 -77 185 -50 521 -96 780 -106 131 -5 223 0 505 26 114 11 297 44 405 73 19 5 60 15 90 23 110 27 141 35 158 44 9 5 46 18 82 29 104 34 154 53 165 63 5 5 15 9 22 9 19 0 305 134 363 170 8 5 53 32 100 60 172 102 387 254 475 337 17 15 46 41 65 57 19 15 69 61 110 101 68 66 108 107 226 236 45 49 254 325 254 335 0 3 13 23 28 43 16 20 32 43 35 51 4 8 16 29 26 45 20 31 34 56 95 165 54 97 129 256 156 330 7 19 19 49 26 65 18 42 74 203 84 245 5 19 16 60 26 90 19 65 40 153 55 230 5 30 15 78 21 105 6 28 15 82 19 120 4 39 12 117 19 175 14 124 9 618 -8 725 -6 39 -16 102 -22 140 -7 39 -16 97 -21 130 -5 33 -13 73 -18 90 -13 44 -31 113 -41 165 -6 25 -14 54 -18 65 -5 11 -24 65 -41 120 -30 92 -90 253 -110 293 -4 9 -37 76 -72 147 -66 136 -186 348 -201 353 -4 2 -8 8 -8 14 0 5 -8 20 -17 33 -10 12 -25 33 -33 46 -31 48 -175 235 -202 264 -16 16 -43 49 -61 72 -41 54 -253 263 -337 334 -36 29 -67 56 -70 59 -22 24 -245 187 -308 225 -9 6 -19 13 -22 16 -22 26 -366 210 -515 274 -87 39 -104 45 -117 45 -7 0 -22 7 -32 15 -11 8 -29 15 -41 15 -12 0 -25 4 -30 9 -6 5 -44 18 -85 30 -41 12 -86 27 -99 32 -14 6 -43 14 -65 19 -23 5 -70 17 -106 26 -36 9 -92 20 -125 26 -33 5 -74 14 -92 19 -18 6 -76 14 -130 20 -54 6 -132 14 -173 19 -93 11 -543 10 -625 -1z m-1125 -2826 c60 -14 113 -33 150 -54 8 -5 24 -13 35 -18 12 -5 37 -27 58 -50 110 -122 117 -162 117 -674 0 -255 4 -417 11 -442 6 -22 13 -57 16 -77 l5 -38 -216 0 c-203 0 -216 1 -226 19 -5 11 -10 33 -10 50 0 41 -14 46 -47 15 -50 -46 -111 -73 -236 -105 -134 -33 -268 -23 -392 29 -48 20 -48 20 -107 72 -148 130 -158 409 -21 555 44 48 129 98 186 111 17 3 38 10 47 14 22 11 123 30 215 41 44 5 96 13 115 19 19 5 53 10 75 10 61 0 125 37 143 83 13 34 13 42 -2 75 -28 61 -82 85 -191 86 -72 0 -97 -4 -123 -19 -34 -20 -77 -78 -84 -111 -3 -18 -15 -19 -211 -22 l-207 -2 0 54 c0 30 4 57 9 61 5 3 13 20 17 37 17 80 112 182 209 227 100 46 158 61 270 71 113 10 318 2 395 -17z m3420 0 c144 -34 221 -81 295 -178 58 -76 93 -208 62 -233 -11 -9 -66 -12 -198 -10 l-184 3 -24 50 c-34 71 -75 90 -196 90 -101 -1 -129 -12 -155 -59 -12 -24 -12 -30 2 -54 18 -33 129 -90 196 -102 335 -59 424 -87 502 -161 107 -101 143 -234 103 -382 -26 -95 -79 -168 -168 -233 -177 -128 -507 -160 -785 -75 -135 41 -258 155 -302 281 -18 51 -29 133 -19 149 7 11 393 17 411 6 5 -3 10 -15 10 -27 0 -37 61 -128 86 -128 6 0 25 -7 40 -15 43 -22 151 -19 207 5 62 28 89 63 85 113 -5 67 -68 104 -233 138 -142 29 -183 39 -208 48 -16 6 -41 11 -57 11 -16 0 -31 4 -35 9 -3 5 -19 13 -37 16 -75 17 -180 101 -218 175 -45 88 -44 243 2 339 18 38 77 105 120 136 35 25 133 67 203 85 112 30 375 32 495 3z m-2558 -43 c4 -14 14 -52 23 -85 9 -33 22 -81 30 -106 8 -26 15 -53 15 -62 0 -8 7 -39 16 -68 32 -112 82 -308 104 -408 6 -24 12 -47 15 -49 8 -8 37 70 45 123 5 28 13 68 18 90 6 22 18 76 27 120 9 44 21 94 25 110 5 17 12 50 15 75 4 25 11 56 16 70 5 14 14 48 19 75 5 28 14 71 20 98 l12 47 209 0 209 0 11 -27 c6 -16 17 -59 25 -98 8 -38 21 -99 30 -135 8 -36 19 -86 24 -113 5 -26 13 -62 19 -80 5 -17 17 -68 26 -112 9 -44 21 -98 27 -120 5 -22 13 -60 16 -85 4 -25 11 -44 16 -43 9 2 53 157 76 266 5 27 12 52 15 57 3 5 10 28 15 52 14 66 37 155 60 243 12 44 25 96 29 115 4 19 13 45 20 58 12 22 14 22 226 22 117 0 216 -4 219 -8 6 -10 -12 -87 -30 -129 -8 -17 -14 -36 -14 -43 0 -15 -27 -102 -46 -148 -8 -18 -14 -44 -14 -57 0 -13 -4 -26 -9 -30 -5 -3 -12 -20 -16 -38 -9 -41 -34 -122 -52 -164 -7 -17 -13 -37 -13 -44 0 -7 -6 -31 -14 -54 -8 -22 -22 -67 -31 -100 -10 -33 -24 -74 -32 -92 -7 -17 -13 -36 -13 -43 0 -14 -29 -107 -41 -131 -4 -9 -11 -34 -15 -54 -4 -21 -13 -50 -20 -64 -8 -14 -14 -33 -14 -41 0 -8 -8 -34 -17 -57 l-18 -43 -218 0 -218 0 -15 36 c-8 19 -19 58 -24 87 -6 29 -14 63 -19 77 -5 14 -16 61 -25 105 -10 44 -23 103 -31 130 -7 28 -18 73 -25 100 -6 28 -18 79 -26 115 -8 36 -19 87 -24 114 -5 27 -12 51 -15 54 -12 12 -33 -26 -43 -78 -15 -78 -32 -150 -43 -187 -6 -18 -14 -54 -19 -80 -11 -58 -27 -130 -45 -198 -7 -27 -20 -86 -30 -130 -9 -44 -24 -95 -33 -114 l-17 -34 -215 2 c-118 1 -217 4 -219 6 -7 7 -40 109 -41 123 0 8 -6 28 -13 45 -8 18 -22 59 -32 92 -9 33 -23 78 -31 100 -8 23 -14 47 -14 54 0 7 -6 27 -13 44 -18 42 -43 123 -52 164 -4 18 -11 35 -16 38 -5 4 -9 17 -9 30 0 13 -6 39 -14 57 -7 18 -21 60 -31 93 -22 76 -73 238 -91 290 -8 23 -14 47 -14 55 0 8 -6 26 -13 40 -16 31 -28 96 -19 104 3 4 103 5 221 4 l216 -3 7 -25z"/> <path d="M12620 4620 c-54 -18 -151 -40 -176 -40 -42 0 -152 -51 -184 -85 -23 -25 -36 -89 -26 -129 17 -70 118 -112 226 -94 95 15 131 41 169 123 15 32 32 148 32 220 1 13 -11 14 -41 5z"/> <path d="M8650 7650 l-45 -5 0 -90 0 -90 58 -3 57 -3 0 89 c0 60 -4 93 -12 99 -7 5 -33 6 -58 3z"/> <path d="M7407 7563 c-4 -3 -7 -75 -7 -160 l0 -153 -79 0 c-44 0 -86 -3 -95 -6 -17 -7 -22 -69 -8 -91 5 -7 40 -13 92 -15 l85 -3 5 -427 5 -426 31 -38 c38 -48 105 -73 196 -74 93 0 98 3 98 61 l0 49 -62 0 c-86 0 -104 7 -128 45 -20 32 -20 46 -18 421 l3 389 100 5 100 5 0 50 0 50 -102 3 -103 3 0 144 c0 79 -3 150 -6 159 -4 12 -20 16 -53 16 -26 0 -51 -3 -54 -7z"/> <path d="M4392 7261 c-159 -40 -232 -108 -273 -250 -11 -36 -17 -72 -14 -78 3 -8 23 -13 53 -13 57 0 64 6 82 74 15 56 55 106 115 144 38 25 47 27 170 27 125 0 132 -2 172 -28 24 -15 55 -46 69 -69 22 -35 26 -53 27 -115 0 -63 -3 -77 -21 -95 -30 -31 -109 -58 -167 -58 -27 0 -77 -5 -110 -11 -33 -5 -85 -14 -116 -18 -144 -23 -243 -80 -293 -170 -28 -52 -28 -220 0 -271 38 -70 77 -105 159 -146 34 -16 61 -19 175 -19 124 1 139 3 190 27 52 24 89 55 154 127 16 17 34 30 40 28 6 -2 13 -26 16 -54 8 -76 48 -103 152 -103 53 0 72 19 66 68 -2 22 -9 28 -38 32 -20 4 -41 9 -48 13 -24 16 -31 89 -31 352 -1 149 -4 301 -8 340 -7 76 -39 153 -81 192 -85 79 -288 113 -440 74z m404 -537 c4 -15 4 -70 0 -124 -7 -107 -31 -168 -93 -234 -84 -88 -282 -134 -380 -88 -101 46 -142 118 -135 237 2 32 50 93 92 116 67 36 161 59 331 78 47 6 101 17 120 25 48 21 58 20 65 -10z"/> <path d="M6558 7261 c-37 -10 -84 -26 -105 -36 -45 -22 -133 -110 -133 -134 0 -9 -5 -22 -11 -28 -15 -15 -15 -151 0 -166 6 -6 11 -18 11 -26 0 -23 70 -95 110 -113 76 -35 109 -48 125 -48 9 0 24 -4 34 -10 10 -5 43 -14 72 -19 167 -30 233 -55 283 -107 69 -71 63 -168 -15 -238 -148 -133 -454 -84 -518 84 -7 19 -17 44 -21 55 -5 11 -11 28 -14 38 -5 15 -15 18 -58 15 l-53 -3 2 -38 c1 -21 9 -58 18 -82 51 -151 165 -229 351 -241 186 -12 315 25 404 116 103 104 106 270 7 373 -57 59 -139 98 -246 117 -183 31 -304 78 -349 135 -42 53 -37 140 12 193 46 52 92 66 211 66 93 0 116 -3 150 -21 64 -34 125 -112 125 -161 0 -10 5 -23 12 -30 15 -15 90 -16 104 -2 13 13 0 108 -16 124 -5 5 -10 16 -10 24 0 22 -85 105 -132 128 -72 36 -110 45 -198 50 -63 3 -102 -1 -152 -15z"/> <path d="M9325 7274 c-88 -21 -115 -29 -154 -46 -97 -43 -188 -180 -179 -269 l3 -34 55 0 c54 0 55 1 58 30 7 72 66 154 137 190 32 17 58 20 164 20 119 0 128 -2 166 -26 54 -35 72 -57 90 -108 37 -105 5 -185 -87 -214 -30 -9 -75 -17 -99 -17 -24 0 -71 -5 -104 -11 -33 -5 -87 -14 -120 -19 -76 -12 -157 -42 -206 -76 -47 -32 -89 -86 -89 -113 0 -11 -4 -23 -10 -26 -5 -3 -10 -38 -10 -77 0 -148 47 -227 170 -286 51 -25 64 -26 190 -26 124 0 139 2 190 26 57 27 145 106 155 139 9 26 32 24 40 -3 32 -120 39 -128 137 -135 85 -6 101 4 96 59 -3 30 -6 33 -38 36 -22 2 -43 13 -57 29 -23 26 -23 28 -23 362 0 303 -2 342 -19 390 -34 96 -93 150 -211 190 -37 13 -211 23 -245 15z m353 -628 c3 -104 -9 -154 -54 -226 -59 -95 -189 -160 -319 -160 -109 0 -200 60 -231 153 -19 57 -14 103 17 153 21 34 86 84 110 84 6 0 25 6 42 14 35 15 133 33 247 46 41 5 93 16 115 24 68 25 70 23 73 -88z"/> <path d="M8349 7251 c-31 -3 -62 -11 -70 -17 -8 -6 -27 -14 -43 -18 -29 -7 -146 -117 -146 -137 0 -17 -44 -49 -51 -37 -4 5 -4 50 -1 100 5 98 1 108 -50 108 -62 0 -58 38 -58 -531 0 -582 -6 -543 75 -530 l40 6 5 336 c3 227 9 340 16 350 6 8 15 25 19 39 12 38 68 107 117 144 52 39 117 64 178 68 61 5 70 13 70 58 0 50 -8 70 -29 69 -9 -1 -41 -5 -72 -8z"/> <path d="M5203 7243 c-10 -4 -13 -85 -13 -361 0 -463 12 -531 102 -625 76 -78 113 -90 263 -91 125 -1 132 0 190 29 56 28 135 96 162 140 19 32 33 0 33 -77 l0 -66 40 -7 c74 -13 70 -44 68 539 l-3 521 -55 0 -55 0 -6 -335 c-4 -228 -10 -349 -18 -380 -33 -115 -96 -199 -181 -243 -43 -22 -65 -27 -128 -27 -127 0 -206 42 -254 134 -22 40 -22 52 -26 441 -2 294 -6 402 -15 407 -13 8 -85 9 -104 1z"/> <path d="M8605 7238 c-3 -7 -4 -245 -3 -528 l3 -515 48 -6 c31 -3 51 -1 58 7 6 7 8 207 7 530 l-3 519 -53 3 c-36 2 -54 -1 -57 -10z"/> <path d="M1882 5403 l3 -98 55 0 55 0 0 95 0 95 -58 3 -58 3 3 -98z"/> <path d="M5692 4773 l3 -728 55 0 55 0 5 345 c4 251 9 355 19 380 63 169 170 250 327 250 46 0 119 -17 139 -32 75 -58 103 -99 120 -178 5 -19 11 -199 14 -400 l6 -365 55 0 55 0 0 385 c-1 473 -7 513 -100 604 -68 65 -146 89 -283 84 -91 -3 -115 -7 -162 -30 -68 -33 -110 -68 -145 -119 -15 -21 -31 -36 -36 -33 -5 3 -9 131 -9 285 l0 279 -60 0 -60 0 2 -727z"/> <path d="M8110 5486 c-109 -35 -154 -129 -163 -341 l-2 -50 -85 -5 -85 -5 -3 -39 c-2 -24 2 -42 10 -47 7 -5 46 -9 86 -9 39 0 73 -1 74 -2 1 -2 5 -214 8 -473 l5 -470 60 0 60 0 5 468 c4 384 7 469 19 476 8 5 48 7 90 5 42 -2 82 0 89 5 8 5 12 23 10 47 l-3 39 -100 5 -100 5 1 118 1 118 31 32 c30 30 35 31 114 32 l83 0 3 38 c5 58 -8 67 -97 66 -42 -1 -92 -6 -111 -13z"/> <path d="M3083 5414 c-10 -4 -13 -46 -13 -160 0 -177 10 -162 -115 -166 l-70 -3 -3 -42 c-3 -47 -7 -45 78 -48 31 -1 68 -5 83 -9 l27 -6 1 -378 c0 -207 4 -403 8 -434 13 -102 86 -148 237 -148 83 0 97 10 92 67 l-3 38 -79 3 c-70 3 -83 6 -105 29 l-26 25 -3 371 c-2 204 -1 386 3 404 l6 33 99 0 c97 0 100 1 106 24 3 13 4 35 2 47 -3 23 -6 24 -105 27 -122 3 -112 -13 -116 187 l-2 140 -45 2 c-25 1 -51 0 -57 -3z"/> <path d="M8577 5414 c-4 -4 -7 -78 -7 -165 l0 -158 -87 -3 -88 -3 0 -45 0 -45 75 -1 c41 0 80 -1 87 -2 9 -2 12 -108 15 -419 3 -407 4 -419 25 -459 27 -51 39 -61 99 -79 61 -18 187 -20 202 -2 13 16 18 68 9 85 -5 8 -34 12 -81 12 -82 0 -99 11 -123 78 -18 51 -19 752 -1 770 7 7 45 12 98 12 47 0 90 4 96 8 14 9 21 62 11 80 -6 8 -38 12 -101 12 -65 0 -97 4 -104 13 -7 8 -13 73 -14 163 l-3 149 -50 3 c-28 2 -54 0 -58 -4z"/> <path d="M3810 5103 c-145 -52 -212 -117 -226 -220 -18 -137 24 -225 131 -277 33 -16 68 -33 78 -38 10 -5 37 -13 60 -18 265 -57 327 -80 375 -134 45 -51 57 -90 43 -136 -23 -78 -91 -134 -198 -163 -78 -21 -111 -21 -187 0 -108 29 -195 108 -211 190 -10 54 -21 63 -77 63 -58 0 -66 -13 -48 -73 42 -142 122 -230 241 -267 62 -19 88 -22 210 -18 91 2 143 8 151 16 6 6 20 12 29 12 59 0 177 112 202 191 22 67 21 107 -3 176 -20 57 -90 143 -117 143 -7 0 -13 4 -13 9 0 11 -107 44 -215 66 -175 37 -237 61 -290 113 -70 70 -54 181 34 236 126 79 336 51 411 -54 12 -17 28 -53 34 -78 l12 -47 62 -3 c72 -3 72 -3 46 86 -29 98 -76 156 -159 196 -22 10 -49 24 -60 30 -34 18 -263 18 -315 -1z"/> <path d="M4889 5101 c-31 -11 -76 -31 -99 -46 -50 -31 -137 -118 -151 -149 -5 -11 -13 -28 -18 -36 -16 -26 -41 -88 -41 -102 0 -7 -7 -31 -15 -53 -17 -47 -20 -230 -4 -290 5 -22 14 -53 18 -70 32 -123 137 -249 257 -306 68 -34 70 -34 211 -34 100 0 146 4 155 13 6 6 19 12 28 12 16 0 104 59 129 88 36 40 80 110 87 138 4 16 11 34 16 41 5 6 10 31 11 55 l2 43 -49 0 c-52 0 -52 0 -81 -70 -53 -128 -99 -175 -215 -218 -58 -22 -99 -21 -169 0 -141 43 -230 143 -273 303 -16 60 -15 233 1 290 36 127 116 230 211 277 87 42 238 39 310 -6 46 -29 99 -92 116 -139 26 -70 40 -82 95 -82 26 0 51 5 54 10 7 11 -23 103 -51 158 -27 55 -100 120 -172 154 -62 29 -76 32 -187 35 -98 2 -130 -1 -176 -16z"/> <path d="M7045 5096 c-33 -12 -71 -28 -84 -35 -35 -19 -92 -73 -102 -96 -5 -11 -13 -27 -18 -35 -20 -34 -42 -120 -36 -140 6 -18 13 -21 57 -18 l51 3 22 63 c34 99 90 151 183 171 128 27 260 3 322 -59 40 -40 50 -69 50 -144 0 -67 -3 -77 -28 -104 -32 -34 -87 -49 -227 -62 -249 -22 -367 -70 -447 -179 -9 -13 -20 -53 -24 -88 -19 -177 41 -288 183 -342 74 -28 254 -30 330 -3 60 21 129 72 169 125 37 49 56 45 69 -17 7 -32 20 -56 39 -72 25 -22 36 -25 100 -22 l71 3 3 43 c3 39 1 42 -21 42 -14 0 -39 13 -56 29 -24 23 -31 37 -31 68 0 21 -2 180 -3 353 -3 297 -4 318 -24 360 -61 130 -167 181 -372 179 -95 0 -127 -5 -176 -23z m445 -615 c0 -141 -16 -188 -90 -262 -55 -55 -103 -81 -187 -103 -78 -20 -95 -20 -167 1 -114 35 -176 125 -161 236 9 65 67 124 146 149 72 23 181 45 252 52 65 7 144 24 167 37 37 20 40 12 40 -110z"/> <path d="M9309 5100 c-106 -35 -166 -83 -205 -165 -61 -129 -6 -276 126 -337 76 -35 84 -38 130 -48 251 -52 341 -87 387 -147 22 -28 26 -44 25 -94 -1 -70 -28 -116 -91 -153 -42 -25 -151 -55 -199 -56 -46 0 -138 28 -189 57 -37 21 -93 81 -93 98 0 4 -6 21 -14 38 -8 18 -16 41 -18 52 -3 17 -11 20 -58 20 -55 0 -55 0 -58 -33 -2 -18 4 -46 12 -64 9 -17 16 -37 16 -44 0 -19 56 -99 88 -126 15 -13 46 -32 67 -42 22 -10 49 -24 60 -30 11 -5 84 -12 162 -14 125 -4 148 -2 203 17 188 65 267 190 230 365 -21 104 -132 189 -280 216 -193 36 -318 79 -356 123 -57 63 -64 97 -37 162 24 60 83 100 171 118 169 34 319 -48 352 -193 5 -23 11 -25 63 -28 l57 -3 0 35 c0 107 -103 234 -221 274 -86 29 -246 30 -330 2z"/> <path d="M2665 5096 c-102 -26 -186 -85 -232 -163 -14 -24 -30 -42 -37 -40 -7 2 -13 41 -16 98 l-5 94 -50 0 -50 0 -3 -523 -2 -523 57 3 58 3 5 330 c5 348 7 357 56 436 59 94 154 155 263 167 l66 7 0 60 c0 60 0 60 -30 62 -16 1 -52 -4 -80 -11z"/> <path d="M226 5082 c-2 -4 11 -53 29 -107 19 -55 34 -106 35 -113 0 -8 6 -28 13 -45 8 -18 22 -59 31 -92 10 -33 24 -75 32 -93 8 -18 14 -40 14 -48 0 -9 6 -30 13 -47 8 -18 22 -59 31 -92 10 -33 24 -75 32 -93 8 -18 14 -40 14 -48 0 -9 6 -30 13 -47 8 -18 27 -72 43 -122 l29 -90 72 -3 c72 -3 72 -3 79 25 3 15 12 45 20 66 8 20 14 48 14 62 0 13 4 26 9 29 5 3 12 23 16 43 6 35 23 97 47 168 5 17 14 46 18 65 5 19 16 59 25 87 32 106 47 159 60 208 15 63 44 120 54 109 8 -9 21 -54 42 -139 5 -22 13 -49 18 -60 5 -11 17 -49 26 -85 20 -75 54 -186 65 -215 9 -25 28 -96 41 -155 5 -24 14 -49 19 -54 6 -6 10 -21 10 -34 0 -13 6 -38 14 -55 8 -18 16 -40 20 -49 4 -15 17 -18 70 -18 l66 0 20 44 c11 25 20 50 20 56 0 6 20 70 44 143 24 73 58 179 76 237 18 58 39 119 47 137 7 17 13 38 13 47 0 8 6 30 14 48 8 18 22 60 32 93 9 33 23 74 31 92 7 17 13 38 13 46 0 8 7 31 15 51 9 20 13 41 10 46 -9 15 -111 12 -123 -3 -6 -7 -16 -31 -21 -52 -6 -22 -18 -65 -26 -95 -9 -30 -21 -73 -27 -95 -5 -22 -14 -48 -19 -57 -5 -10 -13 -34 -18 -55 -25 -95 -34 -129 -42 -148 -16 -42 -49 -159 -49 -176 0 -10 -4 -20 -9 -23 -5 -4 -12 -25 -16 -48 -4 -23 -11 -49 -16 -58 -5 -8 -13 -28 -19 -43 -12 -34 -26 -28 -35 16 -4 17 -11 37 -15 42 -4 6 -10 29 -14 53 -3 24 -10 51 -15 60 -9 18 -26 80 -41 149 -5 23 -13 50 -18 60 -9 17 -20 57 -43 148 -5 22 -13 49 -18 60 -8 20 -22 70 -42 150 -5 22 -14 49 -19 60 -5 11 -10 29 -12 40 -3 17 -12 20 -66 23 -35 2 -69 -2 -76 -7 -7 -6 -18 -30 -25 -53 -7 -24 -18 -63 -25 -88 -8 -25 -21 -72 -31 -105 -9 -33 -23 -80 -30 -105 -7 -25 -20 -72 -29 -105 -10 -33 -24 -85 -33 -115 -8 -30 -22 -80 -31 -110 -8 -30 -21 -72 -28 -93 -8 -20 -14 -48 -14 -62 0 -13 -5 -27 -12 -31 -16 -10 -48 32 -48 63 0 14 -6 39 -14 56 -13 30 -20 55 -47 160 -5 21 -13 45 -18 55 -5 9 -14 37 -20 62 -11 42 -17 63 -54 188 -38 125 -49 160 -58 196 -5 21 -16 51 -25 67 -13 27 -19 29 -69 29 -29 0 -56 -4 -59 -8z"/> <path d="M1880 4565 l0 -526 58 3 57 3 0 520 0 520 -57 3 -58 3 0 -526z"/> <path d="M7531 3418 c-20 -7 -22 -13 -19 -95 l3 -88 55 0 55 0 0 90 0 90 -36 6 c-20 3 -46 2 -58 -3z"/> <path d="M3925 3031 c-38 -10 -88 -27 -111 -39 -45 -23 -104 -72 -104 -86 0 -5 -6 -17 -13 -25 -17 -20 -37 -89 -37 -126 0 -48 29 -129 59 -166 16 -20 58 -50 93 -67 61 -30 90 -39 193 -62 183 -42 262 -70 301 -109 47 -47 61 -99 45 -159 -18 -70 -54 -102 -161 -144 -49 -19 -214 -26 -225 -9 -3 5 -19 13 -37 16 -17 4 -36 11 -42 16 -79 62 -126 127 -126 176 0 33 -32 53 -83 53 -25 0 -48 -4 -51 -9 -7 -11 18 -98 47 -164 24 -55 83 -117 135 -142 21 -10 51 -25 67 -34 23 -12 63 -16 180 -16 155 0 169 3 273 53 43 20 121 101 129 132 3 14 11 31 17 39 14 18 13 145 -1 163 -5 7 -13 25 -16 39 -13 51 -134 149 -185 149 -10 0 -22 4 -27 9 -6 6 -35 14 -65 20 -107 18 -175 34 -207 47 -17 8 -36 14 -43 14 -6 0 -33 15 -61 32 -61 41 -83 83 -77 150 6 54 27 84 93 127 37 24 48 26 155 26 113 -1 116 -1 168 -34 59 -37 95 -86 106 -142 5 -26 13 -38 29 -43 36 -9 72 -7 90 7 15 11 15 17 -1 74 -42 152 -165 239 -352 248 -62 4 -104 0 -155 -14z"/> <path d="M4995 3033 c-93 -28 -140 -56 -201 -117 -58 -59 -124 -172 -124 -214 0 -9 -7 -35 -15 -57 -17 -48 -20 -250 -4 -310 6 -22 14 -56 18 -75 7 -31 16 -52 43 -100 4 -8 12 -25 18 -37 17 -39 109 -121 168 -149 169 -81 421 -51 540 64 39 37 102 130 102 149 0 6 7 24 15 39 8 16 15 39 15 52 0 20 -5 22 -55 22 l-55 0 -36 -75 c-68 -138 -173 -201 -321 -192 -104 6 -147 22 -207 82 -71 70 -136 216 -136 308 l0 27 398 0 c303 0 402 3 414 13 14 10 15 20 8 57 -5 25 -9 64 -10 86 -1 133 -119 331 -231 389 -100 50 -250 67 -344 38z m262 -123 c49 -25 105 -78 137 -128 39 -65 71 -176 59 -209 -6 -17 -678 -19 -689 -2 -7 12 18 99 50 169 20 45 111 144 156 169 42 24 82 30 165 26 56 -2 93 -10 122 -25z"/> <path d="M8250 3040 c-115 -28 -127 -34 -208 -93 -48 -35 -79 -70 -109 -122 -23 -39 -53 -108 -53 -120 0 -7 -7 -29 -15 -48 -21 -51 -21 -275 1 -348 25 -87 85 -197 135 -247 61 -61 152 -109 236 -123 77 -14 234 -5 272 15 14 8 39 20 55 27 52 25 121 99 164 179 22 40 53 143 48 157 -4 8 -24 13 -55 13 -45 0 -52 -3 -64 -27 -8 -16 -17 -41 -21 -57 -18 -73 -98 -157 -189 -198 -51 -23 -157 -24 -217 -1 -163 61 -260 226 -260 440 0 196 85 354 227 424 41 21 62 24 153 24 104 0 105 -1 160 -37 57 -38 111 -109 124 -163 4 -16 13 -33 19 -37 17 -11 117 -10 117 2 0 67 -76 214 -127 247 -15 10 -30 20 -33 24 -8 10 -63 37 -111 54 -52 19 -200 28 -249 15z"/> <path d="M9285 3031 c-161 -50 -263 -150 -308 -301 -8 -30 -22 -75 -29 -100 -18 -64 -16 -230 5 -319 44 -183 137 -301 283 -357 39 -15 76 -19 179 -19 164 0 227 21 315 102 60 55 125 169 132 228 3 30 3 30 -55 33 -48 3 -58 0 -63 -15 -10 -36 -57 -123 -78 -146 -33 -37 -86 -72 -138 -91 -57 -21 -181 -18 -243 6 -119 47 -221 213 -224 366 l-1 32 398 0 c218 0 403 4 411 9 15 9 12 83 -8 191 -34 189 -143 322 -311 380 -63 21 -198 22 -265 1z m266 -117 c105 -59 186 -182 191 -291 l3 -58 -330 -2 c-181 -2 -336 1 -343 5 -10 7 -10 20 2 68 34 144 137 265 251 295 52 14 189 3 226 -17z"/> <path d="M6201 3020 c-29 -5 -58 -13 -64 -19 -6 -6 -18 -11 -25 -11 -15 0 -94 -60 -120 -90 -7 -8 -25 -33 -40 -56 -15 -22 -31 -42 -37 -45 -6 -2 -12 38 -15 106 l-5 110 -50 0 -50 0 0 -525 0 -525 55 0 55 0 6 315 c6 302 10 348 40 415 16 35 66 103 94 127 34 29 143 78 174 78 15 0 43 3 60 6 30 6 31 8 31 59 0 39 -4 54 -16 59 -17 7 -17 7 -93 -4z"/> <path d="M6414 3005 c-4 -8 1 -26 10 -40 9 -13 16 -29 16 -36 0 -6 6 -25 14 -42 7 -18 21 -52 30 -77 10 -25 24 -58 32 -73 8 -16 14 -36 14 -46 0 -9 7 -26 15 -37 8 -10 15 -25 15 -32 0 -8 6 -28 14 -45 14 -34 30 -75 67 -172 13 -33 27 -64 31 -69 4 -6 8 -16 8 -24 0 -8 6 -28 14 -45 13 -30 21 -51 61 -157 9 -25 23 -58 30 -75 8 -16 16 -40 20 -52 5 -18 16 -23 61 -29 49 -6 58 -4 79 16 13 12 27 36 30 52 4 16 13 41 21 56 8 15 14 34 14 42 0 9 4 20 9 25 5 6 14 26 19 45 6 19 20 60 32 90 12 30 25 66 30 80 5 14 18 50 30 80 12 30 25 66 30 80 5 14 18 50 30 80 12 30 25 66 30 80 5 14 18 50 30 80 12 30 25 66 30 80 5 14 18 50 30 80 35 89 34 94 -27 98 -50 3 -54 1 -73 -30 -11 -18 -20 -42 -20 -53 0 -12 -4 -25 -9 -30 -5 -6 -14 -26 -19 -45 -11 -38 -30 -94 -43 -125 -5 -11 -18 -49 -29 -85 -12 -36 -26 -74 -31 -85 -5 -11 -14 -33 -19 -50 -5 -16 -25 -75 -45 -130 -20 -55 -47 -134 -61 -175 -26 -76 -50 -114 -65 -104 -5 3 -9 12 -9 21 0 8 -6 29 -14 46 -8 18 -16 41 -19 52 -7 27 -35 105 -47 130 -5 11 -19 49 -31 85 -38 113 -49 144 -58 165 -13 31 -32 86 -43 125 -5 19 -14 39 -19 45 -5 5 -9 15 -9 23 0 8 -6 28 -14 45 -8 18 -16 41 -19 52 -13 49 -40 110 -50 117 -7 4 -36 8 -65 8 -38 0 -54 -4 -58 -15z"/> <path d="M7522 3012 c-10 -7 -12 -119 -10 -528 l3 -519 55 0 55 0 3 519 c2 409 0 521 -10 528 -7 4 -29 8 -48 8 -19 0 -41 -4 -48 -8z"/> </g> </svg>