<?xml version="1.0" standalone="no"?> <!DOCTYPE svg PUBLIC "-//W3C//DTD SVG 20010904//EN" "http://www.w3.org/TR/2001/REC-SVG-20010904/DTD/svg10.dtd"> <svg version="1.0" xmlns="http://www.w3.org/2000/svg" width="299.000000pt" height="134.000000pt" viewBox="0 0 299.000000 134.000000" preserveAspectRatio="xMidYMid meet"> <g transform="translate(0.000000,134.000000) scale(0.050000,-0.050000)" fill="#508212" stroke="none"> <path d="M769 2157 c-291 -207 -319 -573 -65 -849 124 -134 176 -87 176 160 l0 98 168 -11 c267 -16 472 -162 472 -336 0 -35 6 -41 23 -24 14 14 19 81 13 190 -16 314 -176 472 -542 536 l-134 23 0 106 c0 135 -31 164 -111 107z"/> <path d="M2168 1919 c-58 -21 -114 -168 -98 -254 20 -108 199 -140 250 -45 68 127 -41 341 -152 299z m83 -88 c58 -88 32 -181 -51 -181 -84 0 -104 66 -51 169 39 74 60 76 102 12z"/> <path d="M1793 1907 c-7 -8 -13 -84 -13 -170 l0 -157 99 0 c115 0 141 29 141 156 0 126 -155 243 -227 171z m147 -68 c42 -78 17 -209 -40 -209 -46 0 -51 8 -56 97 -10 150 43 211 96 112z"/> <path d="M2391 1810 c-15 -116 0 -230 30 -230 9 0 20 56 23 125 l6 125 46 -70 c25 -38 51 -95 57 -125 8 -37 25 -55 50 -55 48 0 49 320 0 336 -20 6 -23 -12 -12 -84 17 -115 -6 -116 -75 -1 -74 122 -108 116 -125 -21z"/> <path d="M2776 1886 c-79 -92 -112 -306 -46 -306 20 0 30 20 30 58 0 45 11 60 51 70 71 18 95 -3 81 -72 -10 -49 -6 -58 23 -52 29 6 34 27 32 114 -4 164 -100 269 -171 188z m105 -68 c26 -49 27 -49 -56 -65 -70 -13 -80 3 -40 67 32 52 68 51 96 -2z"/> <path d="M3013 1907 c-25 -26 -13 -238 16 -280 103 -147 256 3 221 215 -20 113 -68 104 -55 -11 15 -131 -6 -191 -65 -191 -59 0 -80 60 -65 191 10 84 -12 115 -52 76z"/> <path d="M3332 1904 c-5 -9 -16 -86 -24 -170 l-14 -154 103 0 c75 0 103 8 103 28 0 19 -21 27 -65 25 l-65 -3 0 100 c0 55 8 120 17 145 16 45 -30 69 -55 29z"/> <path d="M3599 1858 c-66 -92 -81 -278 -23 -278 31 0 38 9 29 43 -17 67 69 119 131 80 19 -12 20 -30 5 -70 -17 -46 -15 -53 19 -53 92 0 21 323 -73 336 -29 4 -57 -14 -88 -58z m121 -16 c0 -10 5 -32 11 -48 8 -21 -6 -32 -51 -38 -75 -11 -88 4 -48 61 30 43 88 59 88 25z"/> <path d="M3860 1750 c0 -127 7 -170 26 -170 20 0 24 30 18 120 -13 176 32 150 114 -65 45 -119 82 -67 82 115 0 131 -6 170 -28 170 -20 0 -25 -23 -18 -95 9 -104 3 -101 -100 44 -69 99 -94 67 -94 -119z"/> <path d="M4170 1855 c-7 -36 -10 -110 -6 -165 l6 -100 100 0 c123 0 166 59 132 182 -43 157 -207 216 -232 83z m145 0 c64 -79 41 -235 -34 -235 -45 0 -61 38 -61 148 0 111 44 151 95 87z"/> <path d="M473 1446 c-64 -389 135 -623 592 -696 74 -12 75 -12 75 -107 0 -150 37 -185 126 -117 284 216 309 599 56 852 -124 124 -154 102 -165 -118 l-7 -130 -151 1 c-265 1 -412 90 -479 289 l-34 102 -13 -76z"/> <path d="M2436 1423 c-165 -82 -240 -442 -118 -565 65 -64 238 -83 328 -35 245 130 37 723 -210 600z m128 -118 c84 -97 102 -305 32 -354 -94 -65 -236 -11 -236 90 0 196 124 357 204 264z"/> <path d="M4165 1429 c-164 -69 -250 -447 -129 -568 113 -113 360 -83 416 50 100 240 -98 598 -287 518z m142 -154 c56 -75 71 -274 24 -321 -97 -98 -243 -21 -237 124 9 216 121 320 213 197z"/> <path d="M4686 1436 c-193 -51 -167 -241 46 -337 90 -40 128 -68 128 -94 0 -127 -229 -114 -270 15 -19 59 -50 28 -50 -48 0 -181 325 -237 411 -70 61 119 8 212 -164 288 -115 51 -146 92 -107 140 32 39 100 38 156 -2 49 -34 104 -11 104 42 0 49 -161 91 -254 66z"/> <path d="M5152 1441 c-87 -17 -132 -64 -132 -136 l0 -48 58 42 c103 73 138 57 120 -54 -45 -275 -20 -445 66 -445 l60 0 -15 105 c-45 306 -8 476 92 424 55 -28 99 -2 99 60 0 39 -234 74 -348 52z"/> <path d="M1787 1416 c-20 -34 -35 -457 -19 -545 12 -62 21 -71 73 -71 l59 0 -13 110 c-10 91 -6 118 23 150 63 70 99 32 140 -150 23 -100 84 -144 132 -96 28 28 -29 216 -89 294 l-54 70 59 86 c90 132 97 176 28 176 -47 0 -62 -14 -92 -85 -46 -110 -123 -204 -152 -186 -22 13 -20 50 11 216 11 60 -73 84 -106 31z"/> <path d="M2854 1413 c-22 -57 -35 -404 -20 -503 15 -91 22 -101 74 -107 55 -6 56 -3 45 60 -72 384 -21 538 84 255 69 -187 89 -190 141 -24 50 163 69 196 103 176 25 -16 16 -321 -14 -426 -11 -43 -7 -46 55 -40 87 8 106 87 90 368 -14 255 -20 272 -98 264 -47 -5 -74 -27 -122 -100 -76 -114 -69 -114 -142 0 -64 100 -171 142 -196 77z"/> <path d="M3534 1413 c-23 -60 -38 -357 -25 -482 l14 -131 67 0 67 0 -11 107 -11 107 122 74 c186 113 235 222 139 311 -54 51 -344 62 -362 14z m263 -71 c45 -28 17 -105 -60 -167 -83 -67 -117 -60 -117 25 0 137 81 203 177 142z"/> </g> </svg>